# xmcd CD database file
#
# Track frame offsets:
#	150
#	34290
#	55136
#	69588
#	82465
#	97770
#	116061
#	138200
#
# Disc length: 2169 seconds
#
# Revision: 0
# Processed by: cddbd v1.5.2PL0 Copyright (c) Steve Scherf et al.
# Submitted via: CDex 1.70beta2
#
DISCID=6d087708
DTITLE=Cannonball Adderley - Fiddler on the roof (vinyl)
DYEAR=1964
DGENRE=Jazz
TTITLE0=Fiddler On the Roof
TTITLE1=To Life
TTITLE2=Sabbath Prayer
TTITLE3=Chavalah
TTITLE4=Sewing Machine
TTITLE5=Now I Have Everything
TTITLE6=Do You Love Me?
TTITLE7=Matchmaker
EXTD=YEAR: 1964
EXTT0=
EXTT1=
EXTT2=
EXTT3=
EXTT4=
EXTT5=
EXTT6=
EXTT7=
PLAYORDER=
